HIERARCHY
ROOT Hips
{
	OFFSET 0.000000 0.000000 0.000000
	CHANNELS 6 Xposition Yposition Zposition Zrotation Yrotation Xrotation 
	JOINT LHipJoint
	{
		OFFSET 0.000000 0.000000 0.000000
		CHANNELS 3 Zrotation Yrotation Xrotation
		JOINT LeftUpLeg
		{
			OFFSET 1.363060 -1.794630 0.839290
			CHANNELS 3 Zrotation Yrotation Xrotation
			JOINT LeftLeg
			{
				OFFSET 2.448110 -6.726130 0.000000
				CHANNELS 3 Zrotation Yrotation Xrotation
				JOINT LeftFoot
				{
					OFFSET 2.562200 -7.039590 0.000000
					CHANNELS 3 Zrotation Yrotation Xrotation
					JOINT LeftToeBase
					{
						OFFSET 0.157640 -0.433110 2.322550
						CHANNELS 3 Zrotation Yrotation Xrotation
						End Site
						{
							OFFSET 0.000000 0.000000 0.000000
						}
					}
				}
			}
		}
	}
	JOINT RHipJoint
	{
		OFFSET 0.000000 0.000000 0.000000
		CHANNELS 3 Zrotation Yrotation Xrotation
		JOINT RightUpLeg
		{
			OFFSET -1.305520 -1.794630 0.839290
			CHANNELS 3 Zrotation Yrotation Xrotation
			JOINT RightLeg
			{
				OFFSET -2.542530 -6.985550 0.000000
				CHANNELS 3 Zrotation Yrotation Xrotation
				JOINT RightFoot
				{
					OFFSET -2.568260 -7.056230 0.000000
					CHANNELS 3 Zrotation Yrotation Xrotation
					JOINT RightToeBase
					{
						OFFSET -0.164730 -0.452590 2.363150
						CHANNELS 3 Zrotation Yrotation Xrotation
						End Site
						{
							OFFSET 0.000000 0.000000 0.000000
						}
					}
				}
			}
		}
	}
	JOINT LowerBack
	{
		OFFSET 0.000000 0.000000 0.000000
		CHANNELS 3 Zrotation Yrotation Xrotation
		JOINT Spine
		{
			OFFSET 0.028270 2.035590 -0.193380
			CHANNELS 3 Zrotation Yrotation Xrotation
			JOINT Spine1
			{
				OFFSET 0.056720 2.048850 -0.042750
				CHANNELS 3 Zrotation Yrotation Xrotation
				JOINT Neck
				{
					OFFSET 0.000000 0.000000 0.000000
					CHANNELS 3 Zrotation Yrotation Xrotation
					JOINT Neck1
					{
						OFFSET -0.054170 1.746240 0.172020
						CHANNELS 3 Zrotation Yrotation Xrotation
						JOINT Head
						{
							OFFSET 0.104070 1.761360 -0.123970
							CHANNELS 3 Zrotation Yrotation Xrotation
							End Site
							{
								OFFSET 0.000000 0.000000 0.000000
							}
						}
					}
				}
				JOINT LeftShoulder
				{
					OFFSET 0.000000 0.000000 0.000000
					CHANNELS 3 Zrotation Yrotation Xrotation
					JOINT LeftArm
					{
						OFFSET 3.362410 1.200890 -0.311210
						CHANNELS 3 Zrotation Yrotation Xrotation
						JOINT LeftForeArm
						{
							OFFSET 4.983000 -0.000000 -0.000000
							CHANNELS 3 Zrotation Yrotation Xrotation
							JOINT LeftHand
							{
								OFFSET 3.483560 -0.000000 -0.000000
								CHANNELS 3 Zrotation Yrotation Xrotation
								JOINT LeftFingerBase
								{
									OFFSET 0.000000 0.000000 0.000000
									CHANNELS 3 Zrotation Yrotation Xrotation
									JOINT LeftHandIndex1
									{
										OFFSET 0.715260 -0.000000 -0.000000
										CHANNELS 3 Zrotation Yrotation Xrotation
										End Site
										{
											OFFSET 0.000000 0.000000 0.000000
										}
									}
								}
								JOINT LThumb
								{
									OFFSET 0.000000 0.000000 0.000000
									CHANNELS 3 Zrotation Yrotation Xrotation
									End Site
									{
										OFFSET 0.000000 0.000000 0.000000
									}
								}
							}
						}
					}
				}
				JOINT RightShoulder
				{
					OFFSET 0.000000 0.000000 0.000000
					CHANNELS 3 Zrotation Yrotation Xrotation
					JOINT RightArm
					{
						OFFSET -3.136600 1.374050 -0.404650
						CHANNELS 3 Zrotation Yrotation Xrotation
						JOINT RightForeArm
						{
							OFFSET -5.241900 -0.000000 -0.000000
							CHANNELS 3 Zrotation Yrotation Xrotation
							JOINT RightHand
							{
								OFFSET -3.444170 -0.000000 -0.000000
								CHANNELS 3 Zrotation Yrotation Xrotation
								JOINT RightFingerBase
								{
									OFFSET 0.000000 0.000000 0.000000
									CHANNELS 3 Zrotation Yrotation Xrotation
									JOINT RightHandIndex1
									{
										OFFSET -0.622530 -0.000000 -0.000000
										CHANNELS 3 Zrotation Yrotation Xrotation
										End Site
										{
											OFFSET 0.000000 0.000000 0.000000
										}
									}
								}
								JOINT RThumb
								{
									OFFSET 0.000000 0.000000 0.000000
									CHANNELS 3 Zrotation Yrotation Xrotation
									End Site
									{
										OFFSET 0.000000 0.000000 0.000000
									}
								}
							}
						}
					}
				}
			}
		}
	}
}
MOTION
Frames: 6
Frame Time: 0.008333
-37.460816 17.086421 -16.005543 35.841127 73.171011 58.661669 -1.369817 2.423197 5.271536 -21.060956 12.587286 11.835401 -2.595020 -0.070900 3.373281 -0.165112 5.540911 -17.339451 0.607900 -4.990700 -13.882000 -3.533018 4.006673 -5.522687 3.777783 20.261139 -66.276456 -6.250028 -22.432259 51.268641 0.610309 -5.123951 8.616693 -3.962700 12.110600 -36.124300 -11.837901 -4.684721 -1.335856 1.516636 -5.942869 -3.538594 12.394627 -4.057090 4.801461 -11.538103 -4.103644 -6.729291 4.324890 -5.382169 6.219683 6.233500 -1.310100 -2.002200 1.202976 1.025874 0.942781 -68.442973 18.702003 58.609473 107.131972 -60.323471 -71.434354 -1.864062 -0.863526 -18.901738 19.824294 18.744569 7.340600 -7.125000 0.000000 0.000000 -6.284600 49.946900 -0.769100 -3.101988 -1.632198 1.529094 74.525438 7.729803 -12.771616 -104.889059 62.346475 -84.328417 0.896228 1.181290 -35.005259 -16.776702 18.931019 -5.899900 7.125000 0.000000 0.000000 6.470400 -10.851700 5.170500 
-36.692164 17.217042 -15.908872 37.937569 72.882043 60.318073 -1.260846 2.580520 5.497711 -21.546125 12.464359 13.339493 -2.585265 -0.132682 3.333960 -0.547106 6.739729 -17.935033 2.060800 8.991600 25.769200 -3.275133 4.421839 -5.870441 4.640360 18.299756 -63.707143 -4.482553 -20.966570 46.146121 0.559849 -5.456235 8.870094 -3.991900 12.149600 -36.263200 -11.651538 -5.193180 -1.333450 1.569359 -6.604356 -3.555298 12.166546 -4.379711 5.048514 -11.650830 -3.647138 -6.866466 4.060874 -4.644406 6.239523 6.125300 -0.942600 -2.114200 1.214021 1.229197 0.875564 -68.113533 20.714055 58.683432 103.752330 -61.002090 -71.202265 -2.556049 -2.603300 -20.668451 27.826059 44.821936 23.012600 -7.125000 0.000000 0.000000 -18.352100 78.782700 -14.506200 -3.282942 -1.738499 1.624000 75.887980 8.546057 -10.510518 -110.581474 61.303759 -87.671039 0.804697 0.898642 -32.545763 -17.654012 19.009886 -6.188400 7.125000 0.000000 0.000000 6.073100 -10.541200 4.887800 
-35.977142 17.226824 -15.833607 39.635586 72.754612 61.501669 -1.047994 2.797879 5.734936 -21.906167 12.584118 15.548277 -2.534954 -0.222468 3.276502 -0.799629 7.324419 -17.519674 7.136600 15.445800 49.389000 -3.014563 4.821361 -6.237493 5.566561 16.305420 -61.545778 -2.851300 -19.362468 41.114488 0.428586 -5.784171 10.519725 -3.637600 11.661900 -34.546100 -11.166082 -5.259758 -1.030878 1.551730 -6.720439 -3.572190 11.387707 -4.391706 4.901964 -10.905653 -3.450315 -6.798797 3.799940 -4.280380 6.160593 5.746700 -0.806200 -2.204000 1.269421 1.301860 0.776239 -67.021349 22.425199 59.120892 100.163600 -62.171189 -66.982303 -2.496515 -1.024190 -19.268836 33.863469 27.963511 18.723400 -7.125000 0.000000 0.000000 7.982100 62.435600 3.393900 -3.432588 -1.673968 1.728435 77.650012 9.330974 -8.970586 -115.885623 59.782560 -90.980860 0.735402 0.599866 -28.994322 -17.868495 19.330079 -6.342900 7.125000 0.000000 0.000000 6.110600 -10.023400 4.983000 
-35.155781 17.570698 -15.688945 40.511854 72.575238 62.070800 -1.063381 2.888870 5.888286 -22.912090 13.478319 17.163633 -2.364250 0.031436 3.243314 4.842651 -10.333429 -15.284900 3.633300 11.655800 34.525000 -2.469032 5.291538 -6.545248 7.130111 13.805633 -57.600898 -1.215119 -17.265485 35.585258 0.360341 -6.310889 11.953887 -3.106300 10.865100 -31.826400 -10.756926 -5.420991 -0.971707 1.603155 -6.933307 -3.576876 11.270938 -4.531966 5.200687 -10.676090 -3.177950 -7.427337 3.485430 -3.723924 6.204625 5.367800 -0.573900 -2.029600 1.371741 1.412277 0.640964 -67.002154 23.940717 59.254126 95.402796 -63.217010 -62.420426 -1.857277 0.167991 -18.910781 36.959717 13.742021 9.833000 -7.125000 0.000000 0.000000 10.747900 45.563300 0.151200 -3.461613 -1.694924 1.732113 78.542793 10.931525 -6.612662 -120.242198 58.158860 -93.719084 0.633800 0.359203 -24.402776 -17.610794 19.585722 -6.294200 7.125000 0.000000 0.000000 6.435000 -9.685500 5.295000 
-34.360084 17.815598 -15.561431 40.848885 72.301614 62.260622 -1.013823 2.916168 6.001594 -24.087166 14.560254 18.992740 -2.192276 0.099894 3.079979 6.832955 -25.402077 -11.560060 0.895400 6.031100 16.874800 -1.921607 5.654875 -6.771296 8.285855 11.555490 -54.497027 0.015696 -15.334229 30.855128 0.342443 -7.131626 13.997710 -2.539800 9.909900 -28.685400 -10.113944 -5.623739 -1.031452 1.626333 -7.218436 -3.605493 10.593229 -4.648945 5.297857 -10.081469 -2.780433 -7.839911 3.154110 -3.022179 6.187813 4.940400 -0.281000 -1.937700 1.472326 1.493356 0.485565 -66.883878 25.851219 59.156263 89.503913 -64.149499 -58.018062 -1.865078 -0.220122 -19.431259 36.078913 15.428060 11.089400 -7.125000 0.000000 0.000000 10.120000 47.961300 0.746500 -3.558778 -1.644150 1.743721 79.540180 12.295198 -3.228319 -124.202851 56.286324 -96.240334 0.517703 0.117950 -18.936890 -17.388570 19.692715 -6.218000 7.125000 0.000000 0.000000 6.720600 -9.476200 5.561900 
-33.585218 17.986960 -15.466026 41.530893 71.875029 61.945267 -1.519125 1.358362 5.427700 -25.336672 12.478668 9.154061 0.217413 8.291728 26.339091 5.089297 -17.621327 -0.556295 0.879000 5.977000 16.717800 -1.299040 5.989695 -6.867916 9.739175 8.635554 -50.979192 0.854478 -13.410995 26.766704 0.650635 -8.986932 16.587678 -4.150600 12.358100 -37.010900 -9.906683 -5.656743 -0.354367 1.645426 -7.189910 -3.531344 10.374464 -4.682181 5.662375 -9.744501 -2.595127 -8.172349 2.851855 -2.620127 5.896509 4.549900 -0.059900 -2.154600 1.541750 1.656172 0.437659 -67.167549 27.042422 59.503645 82.461823 -64.645348 -52.745004 -1.837650 -0.600790 -20.176471 35.419565 16.945875 12.202800 -7.125000 0.000000 0.000000 9.601400 50.127400 1.223400 -3.520065 -1.635316 1.818906 79.594157 14.033344 0.182366 -127.508161 54.536653 -98.355593 0.367561 -0.035239 -13.059416 -16.997799 19.573020 -5.999000 7.125000 0.000000 0.000000 7.085600 -9.585100 5.853000 
